<?xml version="1.0" encoding="UTF-8"?><svg id="Layer_2" xmlns="http://www.w3.org/2000/svg" viewBox="0 0 1000 1000"><path d="M748.61,409.34c.64,3.89.87,7.85.73,11.78-5.01,134.2-114.1,241.4-249.5,241.4s-246.69-108.05-250.92-242.99c-.12-3.85.34-7.74,1.53-11.4.9-2.78,2.15-5.34,3.95-7.27,5.66-6.07,18.8-3.74,22.71.96,3.93,4.7,2.75,19.57,3.74,27.6.96,8.03,3.13,22.32,6.46,33.29,3.33,10.94,13.88,30.73,18.77,37.38,4.89,6.65,19.96,22.71,30.35,29.55,10.36,6.84,26.25,14.25,37.77,17.62,8.62,2.52,17.45,2.94,23.89.96-1.18-4.67-4.7-7.23-8.6-11.35-3.93-4.1-9.21-6.84-17.24-15.06-8.03-8.22-16.63-22.1-19.96-33.87-3.33-11.74-2.56-16.44-1.18-19.76,1.37-3.33,6.27-4.1,9.79-2.14,3.52,1.95,7.64,9.18,11.35,13.69,3.71,4.51,17.81,18.42,22.71,21.52,4.89,3.13,17.62,11.57,23.47,14.29,5.88,2.75,23.69,9.59,27.82,11.96,4.1,2.34,6.93,2.23,25.84,22.16,18.91,19.9,23.39,57.23,27.71,74.66h.06c4.32-17.43,8.8-54.76,27.71-74.66,18.91-19.93,21.74-19.82,25.84-22.16,4.12-2.36,21.94-9.21,27.82-11.96,5.86-2.72,18.58-11.16,23.47-14.29,4.89-3.11,18.99-17.02,22.71-21.52,3.71-4.51,7.83-11.74,11.35-13.69,3.52-1.95,8.41-1.18,9.79,2.14,1.37,3.33,2.14,8.03-1.18,19.76-3.33,11.76-11.93,25.65-19.96,33.87-8.03,8.22-13.3,10.97-17.24,15.06-3.9,4.12-7.42,6.68-8.6,11.35,6.43,1.98,15.2,1.29,23.89-.96,10.99-2.85,27.41-10.78,37.77-17.62,10.39-6.84,25.45-22.9,30.35-29.55s15.45-26.44,18.77-37.38c3.33-10.97,5.5-25.26,6.46-33.29.99-8.03-.19-22.9,3.74-27.6,3.9-4.7,17.04-7.04,22.71-.96,2.06,2.2,2.86,5.25,3.39,8.48Z" fill="#f15b2c"/><path d="M499.13,327.73c-21.31-43.84-99.01-44.71-107.48,18.06-2.37,17.54,1.8,35.4,11.13,50.44,26.18,42.23,85.87,85.26,96.35,97.95,11.33-13.28,70.17-55.72,96.35-97.95,9.33-15.04,13.5-32.9,11.13-50.44-8.47-62.77-86.17-61.9-107.48-18.06Z" fill="#02a79d"/><polygon points="536.99 379.55 536.99 402.59 510.65 402.59 510.65 428.9 487.62 428.9 487.62 402.59 461.28 402.59 461.28 379.55 487.62 379.55 487.62 353.22 510.65 353.22 510.65 379.55 536.99 379.55" fill="#fff"/><path d="M747.42,330.24l-5.53,23.61-8.11,34.64-15.39-24.35-16.71-26.5,11.57,2.2c-28.42-90.85-114.02-156.93-213.94-156.93s-185.4,66.16-213.74,157.11l10.55-2.25-15.92,26.39-14.73,24.44-8.74-35.02-5.88-23.64,12.34,8.01c32.7-103.43,124.59-176.21,236.1-176.21s201.97,68.33,236.21,176.23l11.92-7.73Z" fill="#f15b2c"/><path d="M211.24,739.01h-21.68l-3.59,10.37h-11.47l19.58-54.52h12.71l19.58,54.52h-11.54l-3.59-10.37ZM208.28,730.28l-7.88-22.78-7.88,22.78h15.76Z" fill="#424143"/><path d="M244.62,691.67v57.72h-10.92v-57.72h10.92Z" fill="#424143"/><path d="M266.31,691.67v57.72h-10.92v-57.72h10.92Z" fill="#424143"/><path d="M277.81,699.2c-1.27-1.22-1.91-2.74-1.91-4.56s.64-3.34,1.91-4.56c1.27-1.22,2.87-1.83,4.8-1.83s3.52.61,4.8,1.83c1.27,1.22,1.91,2.74,1.91,4.56s-.64,3.34-1.91,4.56c-1.27,1.22-2.87,1.83-4.8,1.83s-3.52-.61-4.8-1.83ZM287.99,706.18v43.21h-10.92v-43.21h10.92Z" fill="#424143"/><path d="M298.56,716c1.74-3.38,4.11-5.98,7.1-7.8,2.99-1.82,6.33-2.73,10.02-2.73,3.22,0,6.04.65,8.46,1.95s4.35,2.94,5.81,4.91v-6.16h11v43.21h-11v-6.32c-1.4,2.03-3.34,3.71-5.81,5.03-2.47,1.33-5.32,1.99-8.54,1.99-3.64,0-6.96-.94-9.94-2.81-2.99-1.87-5.36-4.51-7.1-7.92-1.74-3.4-2.61-7.32-2.61-11.74s.87-8.24,2.61-11.62ZM328.39,720.96c-1.04-1.9-2.44-3.35-4.21-4.37-1.77-1.01-3.67-1.52-5.69-1.52s-3.9.5-5.62,1.48c-1.72.99-3.11,2.43-4.17,4.33-1.07,1.9-1.6,4.15-1.6,6.75s.53,4.88,1.6,6.83c1.06,1.95,2.47,3.45,4.21,4.48,1.74,1.04,3.6,1.56,5.58,1.56s3.93-.51,5.69-1.52c1.77-1.01,3.17-2.47,4.21-4.37,1.04-1.9,1.56-4.17,1.56-6.83s-.52-4.93-1.56-6.82Z" fill="#424143"/><path d="M388.06,710.43c3.17,3.25,4.76,7.79,4.76,13.61v25.35h-10.92v-23.87c0-3.43-.86-6.07-2.57-7.92-1.72-1.84-4.06-2.77-7.02-2.77s-5.4.92-7.14,2.77c-1.74,1.85-2.61,4.49-2.61,7.92v23.87h-10.92v-43.21h10.92v5.38c1.46-1.87,3.32-3.34,5.58-4.41,2.26-1.06,4.74-1.6,7.45-1.6,5.15,0,9.31,1.63,12.48,4.88Z" fill="#424143"/><path d="M403.12,716.04c1.82-3.35,4.34-5.95,7.57-7.8,3.22-1.85,6.92-2.77,11.08-2.77,5.36,0,9.79,1.34,13.3,4.02,3.51,2.68,5.86,6.44,7.06,11.27h-11.78c-.62-1.87-1.68-3.34-3.16-4.41-1.48-1.07-3.32-1.6-5.5-1.6-3.12,0-5.59,1.13-7.41,3.39-1.82,2.26-2.73,5.47-2.73,9.63s.91,7.29,2.73,9.56c1.82,2.26,4.29,3.39,7.41,3.39,4.42,0,7.31-1.98,8.66-5.93h11.78c-1.2,4.68-3.56,8.4-7.1,11.15-3.54,2.76-7.96,4.13-13.26,4.13-4.16,0-7.85-.92-11.08-2.77-3.23-1.84-5.75-4.45-7.57-7.8-1.82-3.35-2.73-7.27-2.73-11.74s.91-8.38,2.73-11.74Z" fill="#424143"/><path d="M490.01,731.06h-31.59c.26,3.12,1.35,5.56,3.28,7.33,1.92,1.77,4.29,2.65,7.1,2.65,4.06,0,6.94-1.74,8.66-5.23h11.78c-1.25,4.16-3.64,7.58-7.18,10.26-3.54,2.68-7.88,4.02-13.03,4.02-4.16,0-7.89-.92-11.19-2.77-3.3-1.84-5.88-4.46-7.72-7.84-1.85-3.38-2.77-7.28-2.77-11.7s.91-8.4,2.73-11.78c1.82-3.38,4.37-5.98,7.64-7.8,3.28-1.82,7.05-2.73,11.31-2.73s7.79.88,11.04,2.65c3.25,1.77,5.77,4.28,7.57,7.53,1.79,3.25,2.69,6.98,2.69,11.19,0,1.56-.1,2.96-.31,4.21ZM479.01,723.73c-.05-2.81-1.07-5.06-3.04-6.75-1.98-1.69-4.4-2.54-7.25-2.54-2.7,0-4.98.82-6.82,2.46-1.85,1.64-2.98,3.91-3.39,6.83h20.51Z" fill="#424143"/><path d="M576.2,694.94v54.44h-10.92v-35.41l-14.59,35.41h-8.27l-14.66-35.41v35.41h-10.92v-54.44h12.4l17.32,40.48,17.32-40.48h12.32Z" fill="#424143"/><path d="M626.82,731.06h-31.59c.26,3.12,1.35,5.56,3.28,7.33,1.92,1.77,4.29,2.65,7.1,2.65,4.06,0,6.94-1.74,8.66-5.23h11.78c-1.25,4.16-3.64,7.58-7.18,10.26-3.54,2.68-7.88,4.02-13.03,4.02-4.16,0-7.89-.92-11.19-2.77-3.3-1.84-5.88-4.46-7.72-7.84-1.85-3.38-2.77-7.28-2.77-11.7s.91-8.4,2.73-11.78c1.82-3.38,4.37-5.98,7.64-7.8,3.28-1.82,7.04-2.73,11.31-2.73s7.79.88,11.04,2.65c3.25,1.77,5.77,4.28,7.57,7.53,1.79,3.25,2.69,6.98,2.69,11.19,0,1.56-.1,2.96-.31,4.21ZM615.82,723.73c-.05-2.81-1.07-5.06-3.04-6.75-1.98-1.69-4.39-2.54-7.25-2.54-2.71,0-4.98.82-6.83,2.46-1.85,1.64-2.98,3.91-3.39,6.83h20.51Z" fill="#424143"/><path d="M634.89,716c1.74-3.38,4.12-5.98,7.14-7.8,3.01-1.82,6.37-2.73,10.06-2.73,2.81,0,5.49.61,8.03,1.83,2.55,1.22,4.58,2.85,6.08,4.88v-20.51h11.08v57.72h-11.08v-6.4c-1.35,2.13-3.25,3.85-5.69,5.15s-5.28,1.95-8.5,1.95c-3.64,0-6.97-.94-9.98-2.81-3.02-1.87-5.4-4.51-7.14-7.92-1.74-3.4-2.61-7.32-2.61-11.74s.87-8.24,2.61-11.62ZM664.73,720.96c-1.04-1.9-2.45-3.35-4.21-4.37-1.77-1.01-3.67-1.52-5.69-1.52s-3.9.5-5.62,1.48c-1.72.99-3.11,2.43-4.17,4.33-1.07,1.9-1.6,4.15-1.6,6.75s.53,4.88,1.6,6.83c1.07,1.95,2.47,3.45,4.21,4.48,1.74,1.04,3.6,1.56,5.58,1.56s3.93-.51,5.69-1.52,3.17-2.47,4.21-4.37c1.04-1.9,1.56-4.17,1.56-6.83s-.52-4.93-1.56-6.82Z" fill="#424143"/><path d="M688.71,699.2c-1.27-1.22-1.91-2.74-1.91-4.56s.64-3.34,1.91-4.56c1.27-1.22,2.87-1.83,4.8-1.83s3.52.61,4.8,1.83c1.27,1.22,1.91,2.74,1.91,4.56s-.64,3.34-1.91,4.56c-1.27,1.22-2.87,1.83-4.8,1.83s-3.52-.61-4.8-1.83ZM698.89,706.18v43.21h-10.92v-43.21h10.92Z" fill="#424143"/><path d="M709.58,716.04c1.82-3.35,4.34-5.95,7.57-7.8,3.22-1.85,6.92-2.77,11.08-2.77,5.35,0,9.79,1.34,13.3,4.02,3.51,2.68,5.86,6.44,7.06,11.27h-11.78c-.62-1.87-1.68-3.34-3.16-4.41-1.48-1.07-3.32-1.6-5.5-1.6-3.12,0-5.59,1.13-7.41,3.39-1.82,2.26-2.73,5.47-2.73,9.63s.91,7.29,2.73,9.56c1.82,2.26,4.29,3.39,7.41,3.39,4.42,0,7.3-1.98,8.66-5.93h11.78c-1.2,4.68-3.56,8.4-7.1,11.15-3.54,2.76-7.96,4.13-13.26,4.13-4.16,0-7.85-.92-11.08-2.77-3.22-1.84-5.75-4.45-7.57-7.8-1.82-3.35-2.73-7.27-2.73-11.74s.91-8.38,2.73-11.74Z" fill="#424143"/><path d="M756.41,716c1.74-3.38,4.11-5.98,7.1-7.8,2.99-1.82,6.33-2.73,10.02-2.73,3.22,0,6.04.65,8.46,1.95,2.42,1.3,4.35,2.94,5.81,4.91v-6.16h11v43.21h-11v-6.32c-1.4,2.03-3.34,3.71-5.81,5.03-2.47,1.33-5.32,1.99-8.54,1.99-3.64,0-6.96-.94-9.95-2.81-2.99-1.87-5.36-4.51-7.1-7.92-1.74-3.4-2.61-7.32-2.61-11.74s.87-8.24,2.61-11.62ZM786.25,720.96c-1.04-1.9-2.45-3.35-4.21-4.37-1.77-1.01-3.67-1.52-5.69-1.52s-3.9.5-5.62,1.48c-1.72.99-3.11,2.43-4.17,4.33-1.07,1.9-1.6,4.15-1.6,6.75s.53,4.88,1.6,6.83c1.07,1.95,2.47,3.45,4.21,4.48,1.74,1.04,3.6,1.56,5.58,1.56s3.93-.51,5.69-1.52,3.17-2.47,4.21-4.37c1.04-1.9,1.56-4.17,1.56-6.83s-.52-4.93-1.56-6.82Z" fill="#424143"/><path d="M820.41,691.67v57.72h-10.92v-57.72h10.92Z" fill="#424143"/><path d="M288.74,798.08c-1.24-.56-2.2-1.33-2.91-2.31-.7-.99-1.07-2.12-1.09-3.42h3.3c.11,1.11.57,2.05,1.38,2.81.8.76,1.98,1.14,3.52,1.14s2.64-.37,3.49-1.11c.85-.74,1.27-1.68,1.27-2.84,0-.91-.25-1.64-.75-2.21-.5-.57-1.12-1-1.87-1.29-.75-.29-1.76-.61-3.03-.95-1.56-.41-2.82-.82-3.76-1.22-.94-.41-1.75-1.05-2.41-1.92-.67-.87-1-2.05-1-3.52,0-1.29.33-2.44.99-3.43.66-1,1.58-1.77,2.77-2.31,1.19-.54,2.56-.82,4.1-.82,2.22,0,4.04.56,5.46,1.67s2.22,2.58,2.4,4.42h-3.4c-.11-.91-.59-1.71-1.43-2.4-.84-.69-1.95-1.04-3.33-1.04-1.29,0-2.35.33-3.16,1s-1.22,1.6-1.22,2.8c0,.86.24,1.56.73,2.11.49.54,1.09.96,1.8,1.24.71.28,1.72.61,3.01.97,1.56.43,2.82.86,3.77,1.27.95.42,1.77,1.07,2.45,1.94.68.87,1.02,2.06,1.02,3.55,0,1.16-.31,2.24-.92,3.26-.61,1.02-1.52,1.85-2.72,2.48-1.2.63-2.62.95-4.25.95s-2.96-.28-4.2-.83Z" fill="#00a79c"/><path d="M315.21,774.97v14.99c0,2.11.52,3.67,1.55,4.69,1.03,1.02,2.46,1.53,4.3,1.53s3.24-.51,4.27-1.53c1.03-1.02,1.55-2.58,1.55-4.69v-14.99h3.09v14.96c0,1.97-.4,3.63-1.19,4.98-.79,1.35-1.86,2.35-3.21,3.01-1.35.66-2.86.99-4.54.99s-3.19-.33-4.54-.99c-1.35-.66-2.41-1.66-3.2-3.01-.78-1.35-1.17-3.01-1.17-4.98v-14.96h3.09Z" fill="#00a79c"/><path d="M355.76,786.82c-1.35,1.3-3.41,1.96-6.17,1.96h-4.56v9.89h-3.09v-23.7h7.65c2.67,0,4.71.65,6.1,1.94s2.09,2.96,2.09,5-.67,3.61-2.02,4.91ZM353.4,785.1c.82-.75,1.22-1.81,1.22-3.2,0-2.92-1.68-4.39-5.03-4.39h-4.56v8.7h4.56c1.72,0,2.99-.37,3.81-1.12Z" fill="#00a79c"/><path d="M382.24,786.82c-1.35,1.3-3.41,1.96-6.17,1.96h-4.56v9.89h-3.09v-23.7h7.65c2.67,0,4.71.65,6.1,1.94s2.09,2.96,2.09,5-.67,3.61-2.02,4.91ZM379.88,785.1c.82-.75,1.22-1.81,1.22-3.2,0-2.92-1.68-4.39-5.03-4.39h-4.56v8.7h4.56c1.72,0,2.99-.37,3.81-1.12Z" fill="#00a79c"/><path d="M398,796.15h8.3v2.52h-11.39v-23.7h3.09v21.18Z" fill="#00a79c"/><path d="M432.99,774.97l-7.72,14.76v8.94h-3.09v-8.94l-7.75-14.76h3.43l5.85,12,5.85-12h3.43Z" fill="#00a79c"/><path d="M472.94,793.4h-10.34l-1.9,5.27h-3.26l8.57-23.56h3.57l8.53,23.56h-3.26l-1.9-5.27ZM472.05,790.88l-4.28-11.97-4.28,11.97h8.57Z" fill="#00a79c"/><path d="M507.28,798.67h-3.09l-12.44-18.87v18.87h-3.09v-23.73h3.09l12.44,18.84v-18.84h3.09v23.73Z" fill="#00a79c"/><path d="M533.44,776.42c1.89.96,3.34,2.34,4.35,4.13,1.01,1.79,1.51,3.9,1.51,6.32s-.5,4.53-1.51,6.31c-1.01,1.78-2.46,3.14-4.35,4.08-1.89.94-4.13,1.41-6.71,1.41h-7.38v-23.7h7.38c2.58,0,4.82.48,6.71,1.45ZM533.73,793.69c1.61-1.62,2.41-3.89,2.41-6.82s-.81-5.25-2.43-6.9c-1.62-1.65-3.95-2.48-6.99-2.48h-4.28v18.63h4.28c3.06,0,5.39-.81,7-2.43Z" fill="#00a79c"/><path d="M578.54,798.67l-5.64-9.69h-3.74v9.69h-3.09v-23.7h7.65c1.79,0,3.3.31,4.54.92,1.24.61,2.16,1.44,2.77,2.48.61,1.04.92,2.23.92,3.57,0,1.63-.47,3.07-1.41,4.32-.94,1.25-2.35,2.07-4.23,2.48l5.95,9.93h-3.71ZM569.16,786.5h4.56c1.68,0,2.94-.41,3.77-1.24.84-.83,1.26-1.93,1.26-3.31s-.41-2.49-1.24-3.26c-.83-.77-2.09-1.16-3.79-1.16h-4.56v8.98Z" fill="#00a79c"/><path d="M596.63,777.49v7.92h8.64v2.55h-8.64v8.16h9.66v2.55h-12.75v-23.73h12.75v2.55h-9.66Z" fill="#00a79c"/><path d="M636.41,798.67h-3.09l-12.44-18.87v18.87h-3.09v-23.73h3.09l12.44,18.84v-18.84h3.09v23.73Z" fill="#00a79c"/><path d="M663.06,774.97v2.52h-6.46v21.18h-3.09v-21.18h-6.49v-2.52h16.05Z" fill="#00a79c"/><path d="M687.68,793.4h-10.34l-1.9,5.27h-3.26l8.57-23.56h3.57l8.53,23.56h-3.26l-1.9-5.27ZM686.8,790.88l-4.28-11.97-4.28,11.97h8.57Z" fill="#00a79c"/><path d="M706.48,796.15h8.3v2.52h-11.39v-23.7h3.09v21.18Z" fill="#00a79c"/></svg>