<?xml version="1.0" encoding="UTF-8"?><svg id="Layer_2" xmlns="http://www.w3.org/2000/svg" viewBox="0 0 1000 1000"><path d="M749.47,497.21c.64,3.89.87,7.85.73,11.78-5.01,134.2-114.1,241.4-249.5,241.4s-246.69-108.05-250.92-242.99c-.12-3.85.34-7.74,1.53-11.4.9-2.78,2.15-5.34,3.95-7.27,5.66-6.07,18.8-3.74,22.71.96,3.93,4.7,2.75,19.57,3.74,27.6.96,8.03,3.13,22.32,6.46,33.29,3.33,10.94,13.88,30.73,18.77,37.38,4.89,6.65,19.96,22.71,30.35,29.55,10.36,6.84,26.25,14.25,37.77,17.62,8.62,2.52,17.45,2.94,23.89.96-1.18-4.67-4.7-7.23-8.6-11.35-3.93-4.1-9.21-6.84-17.24-15.06-8.03-8.22-16.63-22.1-19.96-33.87-3.33-11.74-2.56-16.44-1.18-19.76,1.37-3.33,6.27-4.1,9.79-2.14,3.52,1.95,7.64,9.18,11.35,13.69,3.71,4.51,17.81,18.42,22.71,21.52,4.89,3.13,17.62,11.57,23.47,14.29,5.88,2.75,23.69,9.59,27.82,11.96,4.1,2.34,6.93,2.23,25.84,22.16,18.91,19.9,23.39,57.23,27.71,74.66h.06c4.32-17.43,8.8-54.76,27.71-74.66,18.91-19.93,21.74-19.82,25.84-22.16,4.12-2.36,21.94-9.21,27.82-11.96,5.86-2.72,18.58-11.16,23.47-14.29,4.89-3.11,18.99-17.02,22.71-21.52,3.71-4.51,7.83-11.74,11.35-13.69,3.52-1.95,8.41-1.18,9.79,2.14,1.37,3.33,2.14,8.03-1.18,19.76-3.33,11.76-11.93,25.65-19.96,33.87-8.03,8.22-13.3,10.97-17.24,15.06-3.9,4.12-7.42,6.68-8.6,11.35,6.43,1.98,15.2,1.29,23.89-.96,10.99-2.85,27.41-10.78,37.77-17.62,10.39-6.84,25.45-22.9,30.35-29.55s15.45-26.44,18.77-37.38c3.33-10.97,5.5-25.26,6.46-33.29.99-8.03-.19-22.9,3.74-27.6,3.9-4.7,17.04-7.04,22.71-.96,2.06,2.2,2.86,5.25,3.39,8.48Z" fill="#f25a29"/><path d="M500,415.6c-21.31-43.84-99.01-44.71-107.48,18.06-2.37,17.54,1.8,35.4,11.13,50.44,26.18,42.23,85.87,85.26,96.35,97.95,11.33-13.28,70.17-55.72,96.35-97.95,9.33-15.04,13.5-32.9,11.13-50.44-8.47-62.77-86.17-61.9-107.48-18.06Z" fill="#00a79c"/><polygon points="537.85 467.43 537.85 490.46 511.52 490.46 511.52 516.77 488.48 516.77 488.48 490.46 462.15 490.46 462.15 467.43 488.48 467.43 488.48 441.09 511.52 441.09 511.52 467.43 537.85 467.43" fill="#fff"/><path d="M748.29,418.11l-5.53,23.61-8.11,34.64-15.39-24.35-16.71-26.5,11.57,2.2c-28.42-90.85-114.02-156.93-213.94-156.93s-185.4,66.16-213.74,157.11l10.55-2.25-15.92,26.39-14.73,24.44-8.74-35.02-5.88-23.64,12.34,8.01c32.7-103.43,124.59-176.21,236.1-176.21s201.97,68.33,236.21,176.23l11.92-7.73Z" fill="#f25a29"/></svg>