<?xml version="1.0" encoding="UTF-8"?><svg id="Layer_2" xmlns="http://www.w3.org/2000/svg" viewBox="0 0 1000 1000"><path d="M877.7,495.78c.97,5.89,1.32,11.88,1.1,17.84-7.59,203.17-172.75,365.47-377.74,365.47S127.57,715.49,121.17,511.2c-.18-5.84.51-11.71,2.32-17.26,1.37-4.2,3.25-8.09,5.98-11,8.57-9.2,28.47-5.66,34.38,1.46,5.95,7.12,4.16,29.63,5.66,41.78,1.46,12.15,4.74,33.79,9.78,50.4,5.04,16.56,21.02,46.53,28.42,56.6,7.41,10.07,30.21,34.38,45.94,44.74,15.69,10.36,39.74,21.58,57.18,26.68,13.04,3.81,26.43,4.45,36.16,1.46-1.79-7.07-7.12-10.95-13.03-17.19-5.95-6.2-13.94-10.36-26.09-22.81-12.15-12.44-25.18-33.46-30.21-51.27-5.04-17.77-3.87-24.89-1.79-29.92,2.08-5.04,9.49-6.2,14.82-3.25,5.33,2.95,11.57,13.9,17.19,20.72,5.62,6.83,26.97,27.88,34.38,32.59,7.41,4.74,26.68,17.52,35.54,21.64,8.91,4.16,35.87,14.52,42.12,18.1,6.2,3.54,10.49,3.37,39.12,33.54,28.63,30.13,35.42,86.65,41.95,113.03h.08c6.53-26.38,13.32-82.9,41.95-113.03,28.63-30.17,32.92-30.01,39.12-33.54,6.24-3.58,33.21-13.94,42.12-18.1,8.86-4.12,28.13-16.9,35.54-21.64,7.41-4.7,28.76-25.76,34.38-32.59,5.62-6.82,11.86-17.77,17.19-20.72,5.33-2.95,12.73-1.79,14.82,3.25,2.08,5.04,3.25,12.15-1.79,29.92-5.04,17.81-18.06,38.83-30.21,51.27-12.15,12.44-20.14,16.61-26.09,22.81-5.91,6.24-11.24,10.11-13.03,17.19,9.74,3,23.01,1.95,36.16-1.46,16.64-4.31,41.49-16.31,57.18-26.68,15.73-10.36,38.54-34.67,45.94-44.74,7.41-10.07,23.39-40.04,28.42-56.6,5.04-16.6,8.32-38.25,9.78-50.4,1.5-12.15-.29-34.67,5.66-41.78,5.91-7.12,25.8-10.65,34.38-1.46,3.12,3.33,4.33,7.94,5.13,12.84Z" fill="#f25a29"/><path d="M500,372.23c-32.26-66.37-149.9-67.68-162.72,27.34-3.58,26.56,2.73,53.59,16.85,76.37,39.64,63.93,130.01,129.08,145.87,148.29,17.16-20.11,106.23-84.36,145.87-148.29,14.12-22.77,20.43-49.81,16.85-76.37-12.82-95.03-130.47-93.71-162.72-27.34Z" fill="#00a79c"/><polygon points="557.31 450.68 557.31 485.56 517.44 485.56 517.44 525.39 482.56 525.39 482.56 485.56 442.69 485.56 442.69 450.68 482.56 450.68 482.56 410.82 517.44 410.82 517.44 450.68 557.31 450.68" fill="#fff"/><path d="M875.9,376.02l-8.36,35.75-12.28,52.44-23.31-36.87-25.3-40.12,17.52,3.33c-43.03-137.54-172.63-237.59-323.91-237.59s-280.69,100.16-323.6,237.87l15.97-3.4-24.1,39.95-22.31,37-13.23-53.02-8.91-35.79,18.69,12.12C192.29,231.1,331.4,120.92,500.23,120.92s305.77,103.45,357.62,266.81l18.05-11.71Z" fill="#f25a29"/></svg>